# xmcd
#
# Track frame offsets:
#	150
#	10893
#	21168
#	32793
#	41268
#	56043
#	70593
#	81768
#	92868
#	105693
#	115293
#	128118
#	136893
#	147918
#	157368
#	166668
#	181443
#	189768
#	200193
#	211743
#	221268
#	232218
#	243463
#
# Disc length: 3406 seconds
#
# Revision: 0
# Processed by: cddbd v1.5.1PL0 Copyright (c) Steve Scherf et al.
# Submitted via: EasyCDDAExtractor 8.0.1.1
#
DISCID=460d4c17
DTITLE=Various Artist - A Musical Anthology Disc 2 
DYEAR=1992
DGENRE=Acid Jazz
TTITLE0=Norma Zimmer - Oh Perfect Love
TTITLE1=Lawrence Welk Orchestra - Yellow Bird
TTITLE2=Natalie Nevins - Climb Every Mountain
TTITLE3=Pete Fountain - Pete's Blue Tail Fly
TTITLE4=Tanya - Let It Be Me
TTITLE5=Lawrence Welk Orchestra - Take The "A" Train
TTITLE6=Guy And Ralna - San Antonio Rose
TTITLE7=Buddy Merrill - Little Brown Gal
TTITLE8=Ava Barber - Bucket To The South
TTITLE9=Lawrence Welk Orchestra - Corn Silk
TTITLE10=The Lennon Sisters - Greensleeves
TTITLE11=Myron Floren - Happy Norwegian
TTITLE12=Aladdin - One Soliitary Life
TTITLE13=Lawrence Welk Orchestra - Put Your Little Foot
TTITLE14=Dick Dale - Shenendoah
TTITLE15=Guy And Ralna - Whispering Hope
TTITLE16=Jo Ann Castle - Baby Face
TTITLE17=Bob Lido - Winchester Cathedral
TTITLE18=Jerry Burke - Mexicali Rose
TTITLE19=Bob Havens - Ol' Man River
TTITLE20=Mary Lou Metzger,Bob Lido, Hotsy Totsy Boys - No No Nanette
TTITLE21=Warren Luening - Ciribiribin
TTITLE22=Tom Netherton - I Believe
EXTD=
EXTT0=
EXTT1=
EXTT2=
EXTT3=
EXTT4=
EXTT5=
EXTT6=
EXTT7=
EXTT8=
EXTT9=
EXTT10=
EXTT11=
EXTT12=
EXTT13=
EXTT14=
EXTT15=
EXTT16=
EXTT17=
EXTT18=
EXTT19=
EXTT20=
EXTT21=
EXTT22=
PLAYORDER=
